<svg viewBox="0 0 241 44" xmlns="http://www.w3.org/2000/svg" data-logo="logo">
            <g transform="translate(0, 4) rotate(0)" id="logogram" style="opacity: 1;"><path fill="#FFFFFF" d="M20.5107 18C20.5107 19.1046 19.6153 20 18.5107 20C17.4062 20 16.5107 19.1046 16.5107 18C16.5107 16.8954 17.4062 16 18.5107 16C19.6153 16 20.5107 16.8954 20.5107 18ZM42.5107 18C42.5107 19.1046 41.6153 20 40.5107 20C39.4062 20 38.5107 19.1046 38.5107 18C38.5107 16.8954 39.4062 16 40.5107 16C41.6153 16 42.5107 16.8954 42.5107 18Z"></path><path fill="#ffffff" d="M40.5108 2.0365e-06C41.1868 2.1547e-06 41.8541 0.0372686 42.5107 0.109859V2.12379C41.8556 2.04209 41.1881 2 40.5108 2C36.9726 2 33.7044 3.14743 31.0554 5.09135C31.5371 5.55951 31.9926 6.0544 32.4197 6.57362C34.7044 4.95312 37.4973 4 40.5108 4C41.1898 4 41.8576 4.04834 42.5107 4.14177V6.16591C41.8603 6.0568 41.1922 6 40.5108 6C37.938 6 35.5561 6.80868 33.6028 8.18644C33.9679 8.74673 34.3026 9.3286 34.6046 9.92973C36.2593 8.71698 38.302 8 40.5108 8C41.1957 8 41.8645 8.06886 42.5107 8.20003V10.252C41.8715 10.0875 41.2014 10 40.5108 10C38.5781 10 36.8069 10.6843 35.4238 11.8253C35.6787 12.5233 35.8916 13.2415 36.0595 13.9768C37.1574 12.7628 38.745 12 40.5108 12C41.212 12 41.8852 12.1203 42.5107 12.3414V14.5351C41.9224 14.1948 41.2394 14 40.5108 14C38.3017 14 36.5108 15.7909 36.5108 18C36.5108 20.2091 38.3017 22 40.5108 22C42.7199 22 44.5108 20.2091 44.5108 18L44.5107 17.9791V0.446033C52.5267 2.26495 58.5108 9.43365 58.5108 18C58.5108 27.9411 50.4519 36 40.5108 36C36.3683 36 32.5526 34.6006 29.5107 32.2488C26.4691 34.6002 22.6522 36 18.5107 36C17.8347 36 17.1674 35.9627 16.5107 35.8901V33.8762C17.1659 33.9579 17.8334 34 18.5107 34C22.049 34 25.3171 32.8525 27.9661 30.9086C27.4845 30.4405 27.029 29.9456 26.6019 29.4264C24.3172 31.0469 21.5242 32 18.5108 32C17.8317 32 17.164 31.9517 16.5107 31.8582V29.8341C17.1612 29.9432 17.8294 30 18.5108 30C21.0837 30 23.4655 29.1913 25.4188 27.8136C25.0537 27.2533 24.719 26.6714 24.4169 26.0703C22.7623 27.283 20.7196 28 18.5108 28C17.8259 28 17.157 27.9311 16.5107 27.7999V25.7479C17.15 25.9125 17.8202 26 18.5108 26C20.4435 26 22.2147 25.3157 23.5978 24.1747C23.3429 23.4767 23.13 22.7585 22.9621 22.0232C21.8642 23.2372 20.2766 24 18.5108 24C17.8095 24 17.1363 23.8797 16.5107 23.6586V21.4648C17.0991 21.8052 17.7822 22 18.5108 22C20.7199 22 22.5108 20.2091 22.5108 18C22.5108 15.7909 20.7199 14 18.5108 14C16.3017 14 14.5108 15.7909 14.5108 18L14.5107 35.554C6.49479 33.7351 0.510742 26.5663 0.510742 18C0.510742 8.05887 8.56967 0 18.5108 0C22.6533 0 26.4689 1.39934 29.5108 3.75111C32.5525 1.3998 36.3692 0 40.5108 2.0365e-06ZM46.5107 3.16303V5.34723C51.2407 7.59414 54.5108 12.4152 54.5108 18C54.5108 25.732 48.2428 32 40.5108 32C32.7788 32 26.5108 25.732 26.5108 18C26.5108 13.5817 22.9291 10 18.5108 10C14.0925 10 10.5108 13.5817 10.5108 18C10.5108 20.0289 11.2661 21.8814 12.5108 23.2916V18C12.5108 14.6863 15.1971 12 18.5108 12C21.8245 12 24.5108 14.6863 24.5108 18C24.5108 26.8366 31.6742 34 40.5108 34C49.3474 34 56.5107 26.8366 56.5107 18C56.5107 11.2852 52.3744 5.53658 46.5107 3.16303ZM12.5108 26.0007L12.5107 28.3946C8.92396 26.3197 6.5108 22.4417 6.5108 18C6.5108 11.3726 11.8834 6 18.5108 6C25.1382 6 30.5108 11.3726 30.5108 18C30.5108 23.5228 34.988 28 40.5108 28C46.0336 28 50.5108 23.5228 50.5108 18C50.5108 14.7284 48.9397 11.8237 46.5108 9.99929V7.60538C50.0976 9.68023 52.5108 13.5583 52.5108 18C52.5108 24.6274 47.1382 30 40.5108 30C33.8834 30 28.5108 24.6274 28.5108 18C28.5108 12.4772 24.0336 8 18.5108 8C12.9879 8 8.51082 12.4772 8.51082 18C8.51082 21.2716 10.0819 24.1763 12.5108 26.0007ZM4.5108 18C4.5108 23.5848 7.78088 28.4058 12.5107 30.6527V32.837C6.6471 30.4634 2.51079 24.7148 2.5108 18C2.5108 9.16344 9.67424 2 18.5108 2C27.3474 2 34.5108 9.16344 34.5108 18C34.5108 21.3137 37.1971 24 40.5108 24C43.8245 24 46.5108 21.3137 46.5108 18V12.7084C47.7555 14.1186 48.5108 15.9711 48.5108 18C48.5108 22.4183 44.9291 26 40.5108 26C36.0925 26 32.5108 22.4183 32.5108 18C32.5108 10.268 26.2428 4 18.5108 4C10.7788 4 4.5108 10.268 4.5108 18Z" clip-rule="evenodd" fill-rule="evenodd"></path></g>
            <g transform="translate(65, 1)" id="logotype" style="opacity: 1;"><path d="M24.51 34L8.31 34L8.31 8.54L13.52 8.54L13.52 29.68L24.51 29.68L24.51 34ZM34.25 34.38L34.25 34.38Q31.38 34.38 29.27 33.14Q27.17 31.90 26.04 29.68Q24.90 27.47 24.90 24.53L24.90 24.53Q24.90 21.56 26.04 19.35Q27.17 17.13 29.27 15.89Q31.38 14.65 34.25 14.65L34.25 14.65Q37.14 14.65 39.23 15.89Q41.32 17.13 42.46 19.35Q43.60 21.56 43.60 24.53L43.60 24.53Q43.60 27.47 42.46 29.68Q41.32 31.90 39.23 33.14Q37.14 34.38 34.25 34.38ZM34.25 30.34L34.25 30.34Q35.61 30.34 36.54 29.58Q37.46 28.82 37.92 27.50Q38.38 26.17 38.38 24.52L38.38 24.52Q38.38 22.82 37.92 21.51Q37.46 20.19 36.54 19.44Q35.61 18.69 34.25 18.69L34.25 18.69Q32.88 18.69 31.97 19.44Q31.05 20.19 30.59 21.51Q30.13 22.82 30.13 24.52L30.13 24.52Q30.13 26.17 30.59 27.50Q31.05 28.82 31.97 29.58Q32.88 30.34 34.25 30.34ZM53.37 41.55L53.37 41.55Q50.99 41.55 49.22 40.95Q47.44 40.34 46.33 39.28Q45.22 38.22 44.79 36.87L44.79 36.87L49.20 35.64Q49.44 36.17 49.94 36.67Q50.45 37.18 51.28 37.50Q52.12 37.83 53.35 37.83L53.35 37.83Q55.32 37.83 56.44 36.93Q57.56 36.03 57.56 34.14L57.56 34.14L57.56 30.62L57.16 30.62Q56.82 31.39 56.17 32.10Q55.52 32.82 54.47 33.27Q53.42 33.73 51.87 33.73L51.87 33.73Q49.71 33.73 47.95 32.72Q46.19 31.71 45.14 29.64Q44.09 27.57 44.09 24.41L44.09 24.41Q44.09 21.18 45.16 19.01Q46.23 16.84 47.99 15.75Q49.76 14.65 51.88 14.65L51.88 14.65Q53.49 14.65 54.58 15.19Q55.68 15.73 56.35 16.54Q57.03 17.35 57.37 18.11L57.37 18.11L57.59 18.11L57.59 14.89L62.63 14.89L62.63 33.85Q62.63 36.43 61.44 38.14Q60.26 39.86 58.17 40.71Q56.09 41.55 53.37 41.55ZM53.47 29.83L53.47 29.83Q54.79 29.83 55.70 29.18Q56.62 28.53 57.09 27.31Q57.57 26.09 57.57 24.38L57.57 24.38Q57.57 22.69 57.09 21.42Q56.62 20.16 55.70 19.46Q54.79 18.76 53.47 18.76L53.47 18.76Q52.12 18.76 51.21 19.48Q50.29 20.21 49.82 21.47Q49.35 22.74 49.35 24.38L49.35 24.38Q49.35 26.05 49.82 27.28Q50.29 28.50 51.22 29.16Q52.14 29.83 53.47 29.83ZM73.28 34.38L73.28 34.38Q70.41 34.38 68.30 33.14Q66.20 31.90 65.06 29.68Q63.93 27.47 63.93 24.53L63.93 24.53Q63.93 21.56 65.06 19.35Q66.20 17.13 68.30 15.89Q70.41 14.65 73.28 14.65L73.28 14.65Q76.16 14.65 78.26 15.89Q80.35 17.13 81.49 19.35Q82.62 21.56 82.62 24.53L82.62 24.53Q82.62 27.47 81.49 29.68Q80.35 31.90 78.26 33.14Q76.16 34.38 73.28 34.38ZM73.28 30.34L73.28 30.34Q74.64 30.34 75.57 29.58Q76.49 28.82 76.95 27.50Q77.41 26.17 77.41 24.52L77.41 24.52Q77.41 22.82 76.95 21.51Q76.49 20.19 75.57 19.44Q74.64 18.69 73.28 18.69L73.28 18.69Q71.91 18.69 71.00 19.44Q70.08 20.19 69.62 21.51Q69.16 22.82 69.16 24.52L69.16 24.52Q69.16 26.17 69.62 27.50Q70.08 28.82 71.00 29.58Q71.91 30.34 73.28 30.34ZM89.05 34L83.92 34L83.92 14.89L89.05 14.89L89.05 34ZM86.48 12.40L86.48 12.40Q85.32 12.40 84.50 11.63Q83.68 10.86 83.68 9.77L83.68 9.77Q83.68 8.67 84.50 7.90Q85.32 7.13 86.48 7.13L86.48 7.13Q87.65 7.13 88.48 7.90Q89.30 8.66 89.30 9.77L89.30 9.77Q89.30 10.86 88.48 11.63Q87.65 12.40 86.48 12.40ZM96.26 41.14L91.13 41.14L91.13 14.89L96.17 14.89L96.17 18.11L96.41 18.11Q96.77 17.35 97.43 16.55Q98.09 15.75 99.16 15.20Q100.24 14.65 101.86 14.65L101.86 14.65Q103.98 14.65 105.74 15.75Q107.50 16.84 108.55 19.03Q109.61 21.22 109.61 24.48L109.61 24.48Q109.61 27.66 108.58 29.86Q107.55 32.05 105.79 33.19Q104.03 34.32 101.83 34.32L101.83 34.32Q100.27 34.32 99.20 33.79Q98.12 33.27 97.45 32.49Q96.77 31.71 96.41 30.94L96.41 30.94L96.26 30.94L96.26 41.14ZM100.26 30.21L100.26 30.21Q101.59 30.21 102.50 29.47Q103.42 28.74 103.89 27.44Q104.36 26.14 104.36 24.46L104.36 24.46Q104.36 22.79 103.89 21.51Q103.42 20.23 102.51 19.49Q101.61 18.76 100.26 18.76L100.26 18.76Q98.94 18.76 98.02 19.47Q97.10 20.17 96.62 21.45Q96.14 22.72 96.14 24.46L96.14 24.46Q96.14 26.19 96.63 27.48Q97.11 28.77 98.04 29.49Q98.96 30.21 100.26 30.21ZM118.51 34.38L118.51 34.38Q116.20 34.38 114.42 33.72Q112.65 33.06 111.52 31.80Q110.39 30.55 110.06 28.77L110.06 28.77L114.83 27.95Q115.21 29.28 116.15 29.95Q117.09 30.62 118.66 30.62L118.66 30.62Q120.11 30.62 120.97 30.06Q121.82 29.51 121.82 28.65L121.82 28.65Q121.82 27.90 121.22 27.42Q120.61 26.94 119.36 26.69L119.36 26.69L116.06 26.00Q113.29 25.44 111.93 24.08Q110.56 22.72 110.56 20.58L110.56 20.58Q110.56 18.74 111.57 17.41Q112.58 16.09 114.37 15.37Q116.17 14.65 118.59 14.65L118.59 14.65Q120.85 14.65 122.51 15.28Q124.16 15.90 125.19 17.05Q126.21 18.19 126.56 19.75L126.56 19.75L122.01 20.55Q121.72 19.58 120.89 18.95Q120.06 18.33 118.66 18.33L118.66 18.33Q117.40 18.33 116.54 18.86Q115.69 19.39 115.69 20.26L115.69 20.26Q115.69 20.99 116.24 21.49Q116.80 21.99 118.15 22.26L118.15 22.26L121.58 22.94Q124.35 23.51 125.70 24.78Q127.05 26.05 127.05 28.10L127.05 28.10Q127.05 29.98 125.96 31.39Q124.86 32.80 122.94 33.59Q121.02 34.38 118.51 34.38ZM134.83 34.24L134.83 34.24Q132.84 34.24 131.36 33.38Q129.87 32.51 129.06 30.90Q128.25 29.28 128.25 27.04L128.25 27.04L128.25 14.89L133.37 14.89L133.37 26.16Q133.37 27.93 134.30 28.94Q135.22 29.95 136.83 29.95L136.83 29.95Q137.92 29.95 138.76 29.48Q139.59 29.01 140.06 28.11Q140.53 27.22 140.53 25.95L140.53 25.95L140.53 14.89L145.66 14.89L145.66 34L140.82 34L140.76 29.23L141.05 29.23Q140.29 31.64 138.75 32.94Q137.20 34.24 134.83 34.24ZM152.89 34L147.76 34L147.76 14.89L152.51 14.89L152.77 19.64L152.39 19.64Q152.84 17.88 153.70 16.77Q154.56 15.66 155.72 15.13Q156.89 14.60 158.17 14.60L158.17 14.60Q160.24 14.60 161.50 15.91Q162.77 17.22 163.36 19.95L163.36 19.95L162.77 19.95Q163.19 18.12 164.16 16.94Q165.12 15.75 166.45 15.18Q167.77 14.60 169.23 14.60L169.23 14.60Q170.99 14.60 172.36 15.37Q173.74 16.14 174.53 17.59Q175.33 19.03 175.33 21.11L175.33 21.11L175.33 34L170.20 34L170.20 22.09Q170.20 20.46 169.32 19.68Q168.44 18.89 167.16 18.89L167.16 18.89Q166.20 18.89 165.49 19.31Q164.78 19.73 164.40 20.48Q164.01 21.23 164.01 22.24L164.01 22.24L164.01 34L159.06 34L159.06 21.95Q159.06 20.55 158.23 19.72Q157.40 18.89 156.08 18.89L156.08 18.89Q155.18 18.89 154.45 19.30Q153.73 19.71 153.31 20.51Q152.89 21.30 152.89 22.45L152.89 22.45L152.89 34Z" fill="#ffffff"></path></g>
            
          </svg>